<?xml version="1.0" encoding="UTF-8"?>
<svg id="_レイヤー_2" data-name="レイヤー 2" xmlns="http://www.w3.org/2000/svg" xmlns:xlink="http://www.w3.org/1999/xlink" viewBox="0 0 531.46 752.34">
  <defs>
    <style>
      .cls-1 {
        fill: #a3a3a3;
      }

      .cls-1, .cls-2, .cls-3, .cls-4, .cls-5, .cls-6, .cls-7, .cls-8, .cls-9, .cls-10, .cls-11, .cls-12, .cls-13, .cls-14, .cls-15, .cls-16, .cls-17, .cls-18, .cls-19, .cls-20, .cls-21, .cls-22, .cls-23 {
        stroke-width: 0px;
      }

      .cls-2 {
        fill: #e26917;
      }

      .cls-3 {
        fill: #d8a577;
      }

      .cls-4 {
        fill: #ffec64;
      }

      .cls-5 {
        fill: #ffe14d;
      }

      .cls-24 {
        clip-path: url(#clippath-2);
      }

      .cls-6 {
        fill: #ff9739;
      }

      .cls-7 {
        fill: none;
      }

      .cls-8, .cls-14 {
        fill: #791628;
      }

      .cls-25 {
        clip-path: url(#clippath-1);
      }

      .cls-9 {
        fill: #1e2672;
      }

      .cls-10 {
        fill: #ddc84b;
      }

      .cls-11 {
        fill: #fff;
      }

      .cls-12 {
        fill: #3a1919;
      }

      .cls-13 {
        fill: #d3d3d3;
      }

      .cls-14 {
        fill-rule: evenodd;
      }

      .cls-15 {
        fill: #9e673e;
      }

      .cls-16 {
        fill: #a31e36;
      }

      .cls-17 {
        fill: #605555;
      }

      .cls-18 {
        fill: #938282;
      }

      .cls-19 {
        fill: #2e3499;
      }

      .cls-20 {
        fill: #c6b44b;
      }

      .cls-21 {
        fill: #cecece;
      }

      .cls-22 {
        fill: #ea911b;
      }

      .cls-23 {
        fill: #7f743c;
      }
    </style>
    <clipPath id="clippath-1">
      <path class="cls-7" d="m101.53,357.63c.85,2.47,3.66,3.75,6.27,2.85s4.03-3.64,3.18-6.11L18.35,86.22l-9.45,3.27,92.63,268.14Z"/>
    </clipPath>
    <clipPath id="clippath-2">
      <path class="cls-7" d="m20.27,115.37s-9.26,17.33,5.7,34.01c10.06,11.22,23.22,8.57,28.04,7.08.6-.19.6-1.03,0-1.22-2.4-.78-4.18-1.69-5.38-2.42-.56-.34-.31-1.21.35-1.19,2.88.08,7.85-.25,10.89-3.11.33-.31.27-.84-.13-1.05l-4.88-2.58c-.55-.29-.41-1.1.2-1.2,2.41-.37,6.05-1.58,6.61-5.4.11-.73-.52-1.37-1.26-1.35h0c-1.21.03-1.72-1.52-.74-2.23,2.05-1.47,3.67-3.72,2.63-7-.1-.31-.44-.49-.76-.41-2.67.67-14.54,2.84-25.61-7.61-2.96-2.79-11.54-11.26-15.68-4.31Z"/>
    </clipPath>
  </defs>
  <g id="_レイヤー_1-2" data-name="レイヤー 1">
    <g>
      <g>
        <path class="cls-8" d="m199.16,425.08s-19.39,10.62-51.73,8.07c-24.68-1.94-69.33-43.8-69.33-43.8l40.29-57.58s34.61,28.84,44.96,35.44c5.77,3.68,51.73-17.93,63.66,18.81,7.68,23.65-27.85,39.07-27.85,39.07Z"/>
        <path class="cls-12" d="m157.43,437.55c-3.27,0-6.71-.13-10.3-.41-25.78-2.03-69.89-43.12-71.75-44.87-1.45-1.36-1.68-3.58-.54-5.21l40.29-57.58c.64-.92,1.64-1.52,2.75-1.67,1.12-.15,2.23.18,3.09.89.34.28,33.87,28.2,44.24,34.94,1.35.14,5.4-.56,8.67-1.14,16.43-2.9,47.02-8.29,56.95,22.28,8.51,26.2-26.84,42.54-29.91,43.9-1.92,1.01-17.66,8.87-43.49,8.87Zm-74.02-48.79c9.69,8.7,44.58,38.85,64.35,40.4,30.79,2.42,49.31-7.49,49.49-7.59.11-.06.22-.11.33-.16.49-.21,32.08-14.31,25.64-34.16-7.18-22.11-27.62-20.46-47.95-16.87-7.26,1.28-11.26,1.99-14.06.2-8.63-5.5-33.01-25.51-42.02-32.96l-35.79,51.14Z"/>
      </g>
      <g>
        <path class="cls-5" d="m60.8,360.1c9.08,17.28,17.08,15.49,31.19,24.24,16.12,10,19.65,5.23,27.56-4.49,6.37-7.82,12.79-18.3,15.97-38.71,1.41-4.56-14.24-14.47-29.76-23.84-10.78-6.51-20.11-7.32-27.32-4.6-15.69,6.48-24.93,28.56-17.64,47.39Z"/>
        <path class="cls-22" d="m67.26,368.82c7.47,11.57,14.67,8.85,24.73,15.52,11.49,7.62,13.45,5.5,17.84.11,7.18-3.27,11.18-8.03,17.51-20.47.54-2.73-23.04-10.86-34.08-18.03-7.67-4.99-13.89-6.29-18.41-5.21-9.8,2.7-14,15.7-7.59,28.08Z"/>
        <path class="cls-12" d="m106.17,393.89c-4.18,0-9.32-1.83-16.29-6.15-3.94-2.44-7.33-4-10.6-5.5-8.03-3.69-14.97-6.87-22.02-20.28-.07-.14-.13-.28-.19-.42-7.87-20.37,1.4-44.92,19.85-52.53.04-.02.08-.03.12-.04,6.36-2.4,16.86-3.49,30.79,4.92,23.56,14.22,33.3,21.37,31.61,28.1-3.4,21.6-10.39,32.54-16.79,40.39l-.33.41c-5.3,6.52-9.53,11.1-16.14,11.1Zm-41.72-35.44c5.73,10.82,10.69,13.09,18.17,16.52,3.34,1.53,7.12,3.27,11.48,5.97,6.46,4,10.75,5.51,13.51,4.74,2.63-.73,5.09-3.75,8.5-7.94l.34-.42c5.73-7.04,12-16.9,15.1-36.7-2.02-4.3-21.41-16-27.86-19.9-8.83-5.33-17.05-6.82-23.78-4.31-14.24,5.93-21.57,25.89-15.46,42.02Z"/>
      </g>
      <g>
        <rect class="cls-16" x="81.65" y="330.07" width="50.78" height="81.31" transform="translate(237.69 7.65) rotate(35.9)"/>
        <path class="cls-8" d="m110.31,322.9l-14.44,19.96c.02,4.21,1.16,8.51,4.15,12.55,7.42,9.99,20.81,19.85,30.48,26.21l20.95-28.94-41.13-29.77Z"/>
        <rect class="cls-4" x="98.15" y="330.07" width="17.77" height="81.31" transform="translate(237.69 7.65) rotate(35.9)"/>
        <g>
          <polygon class="cls-4" points="123.68 332.58 103.84 359.99 76 398.45 90.4 408.87 117.08 372.01 138.07 343 123.68 332.58"/>
          <path class="cls-10" d="m123.68,332.58l-19.84,27.41c3.85,4.21,8.51,8.3,13.24,12.02l21-29.01-14.4-10.42Z"/>
        </g>
        <path class="cls-12" d="m103.76,422.55c-.81,0-1.63-.25-2.34-.76l-41.13-29.77c-.86-.62-1.44-1.56-1.6-2.61-.17-1.05.09-2.12.71-2.98l47.68-65.87c1.29-1.79,3.8-2.19,5.59-.89l41.13,29.77c.86.62,1.44,1.56,1.6,2.61.17,1.05-.09,2.12-.71,2.98l-47.68,65.87c-.78,1.08-2,1.65-3.24,1.65Zm-35.54-34.67l34.65,25.08,42.99-59.39-34.65-25.08-42.99,59.39Z"/>
      </g>
      <path class="cls-6" d="m177.52,294.24l-12.06,13.03c-18.67,12.98-40.33,24.46-50.38,26.7-1.6.35-2.96,1-4.05,1.91-2.23,1.85-3.22,4.81-2.54,7.59.31,1.28.96,2.45,1.87,3.4,1.08,1.2,2.14,2.11,3.41,2.97,9.74,6.57,29.45,6.76,55.18-.11l6.85-1.83c-4.43-15.91-10.21-32.95,1.73-53.66Z"/>
      <path class="cls-2" d="m174.03,295.92l-12.06,13.03c-9.05,6.29-19.06,12.51-27.86,17.22,1.76,19.44-8.07,28.26-8.07,28.26,8.58-.37,28.22-.04,39.4-3.03l6.85-1.83c-4.43-15.91-10.21-32.95,1.73-53.66Z"/>
      <path class="cls-12" d="m135.45,358.83c-10.18,0-18.33-1.89-23.94-5.68-1.55-1.05-2.85-2.18-4.11-3.57-1.37-1.44-2.34-3.23-2.81-5.16-1.04-4.26.48-8.82,3.87-11.63,1.58-1.32,3.51-2.24,5.74-2.73,9.39-2.09,30.68-13.41,48.61-25.83l11.77-12.71c1.38-1.5,3.67-1.71,5.31-.5,1.64,1.21,2.11,3.46,1.09,5.22-10.48,18.16-6.2,33.36-2.05,48.07l.71,2.52c.29,1.03.15,2.13-.38,3.06-.53.93-1.41,1.6-2.44,1.88l-6.85,1.83c-13.08,3.49-24.73,5.24-34.51,5.24Zm31.68-47.86c-19.2,13.28-40.64,24.56-51.2,26.9-.96.21-1.76.58-2.36,1.08-1.06.88-1.53,2.27-1.22,3.57.15.59.45,1.14.87,1.59.03.03.05.06.08.09.84.94,1.65,1.64,2.68,2.33,8.77,5.92,28.18,5.67,51.9-.66l2.94-.78c-2.9-10.32-5.82-21.55-3.7-34.11Z"/>
      <path class="cls-6" d="m407.27,601.89c-12.74,8.77-25.19,15.08-36.99,19.63l-.76,1.39c-26.78,49-84.91,86.67-135.21,87.62-25.07.45-44.5-8.97-54.87-26.42-13.76-23.13-35.28-31.54-49.43-27.9-10.35,2.67-16.51,11.39-16.92,23.93-.35,10.82,8.24,24.2,23.55,36.72,20.89,17.08,53.81,31.47,87.32,31.47,8.29,0,16.63-.88,24.82-2.82,69.54-16.47,133.22-70.69,154.85-131.86l3.76-11.86s-.09.06-.13.09Z"/>
      <path class="cls-2" d="m399.39,607.03c-24.9,56.7-85.15,105.65-150.6,121.15-8.19,1.94-16.53,2.82-24.82,2.82-33.51,0-66.43-14.39-87.32-31.47-11.47-9.38-19.16-19.24-22.16-28.14-.82,2.65-1.29,5.58-1.39,8.76-.35,10.82,8.24,24.2,23.55,36.72,20.89,17.08,53.81,31.47,87.32,31.47,8.29,0,16.63-.88,24.82-2.82,69.54-16.47,133.21-70.69,154.85-131.86l3.76-11.86s-.09.06-.13.09c-2.64,1.82-5.27,3.53-7.88,5.14Z"/>
      <path class="cls-12" d="m223.97,752.34c-37.05,0-70.71-16.72-89.85-32.37-16.29-13.32-25.41-27.88-25.02-39.95.46-14.24,7.9-24.58,19.92-27.68,15.6-4.01,39.11,4.92,53.87,29.73,9.63,16.21,27.88,24.89,51.36,24.47,48.97-.93,105.62-37.71,131.77-85.54l.76-1.4c.45-.83,1.19-1.47,2.07-1.81,12.5-4.83,24.66-11.28,36.14-19.18.02-.02.11-.08.11-.08,1.4-.99,3.28-.97,4.67.04,1.39,1.01,1.97,2.8,1.45,4.44l-3.76,11.86s-.03.08-.04.12c-22.07,62.38-86.92,117.66-157.7,134.42-8.21,1.94-16.87,2.93-25.74,2.93Zm-87.09-92.96c-2.07,0-4.04.24-5.87.71-8.62,2.22-13.56,9.39-13.91,20.19-.3,9.42,7.95,21.94,22.08,33.5,18.08,14.78,49.84,30.56,84.79,30.56,8.25,0,16.29-.91,23.9-2.71,68.26-16.17,130.75-69.31,151.98-129.24l.37-1.17c-8.76,5.31-17.85,9.83-27.12,13.51l-.06.12c-27.41,50.16-87.02,88.72-138.64,89.7-26.52.46-47.22-9.6-58.39-28.38-10.91-18.34-26.8-26.78-39.13-26.78Z"/>
      <path id="silhouette" class="cls-5" d="m406.72,617.24c22.36-15.46,50.33-50.34,56.91-128.79,4.07-48.46-1.61-103.23-14.45-139.54-3.75-10.59-8.09-20.74-13.3-30.09-20.69-37.15-43.47-52.03-43.49-52.04-1.27-.97-2.55-1.92-3.86-2.85-1.76-1.27-3.55-2.52-5.4-3.72,0,0,0,0-.01,0,0,0,0,0-.01,0-20.79-13.31-44.21-20.45-69.62-21.22h0s0,0,0,0c-2.09-.06-4.2-.1-6.28-.1-60.51,0-123.04,25.67-147.39,71.79-19.36,36.66,7.08,46.95,9.21,49.39,10.71,9.58-22.11,115.97-22.11,115.97-17.14,1.99-46.18,14.14-49.9,41.83-.05.36,1.2,5.8,1.78,8.14.03.12.05.25.09.37.17.67.34,1.34.51,2.01-6.38-4.61-13.25-7.06-19.97-7.06-7.65,0-14.71,3.28-19.36,8.99-5.36,6.59-7.18,15.69-5.13,25.63,4.87,23.56,45.04,67.51,73.31,74.3,2.36.57,4.54.85,6.48.85,4.65,0,8.08-1.63,10.19-4.85,3.69-5.64,2.53-14.91.75-21.23,62.89,59.56,167.3,42.74,167.3,42.74h.4c14.57,0,31.18-1.36,56.24-10.77,25.06-9.42,37.12-19.72,37.12-19.72Z"/>
      <path class="cls-22" d="m445.09,352.12c-3.75-10.59-8.09-20.74-13.3-30.09-16.25-29.18-33.79-44.62-40.58-49.9,6.18,7.53,12.94,17.05,19.49,28.81,5.21,9.35,9.55,19.49,13.3,30.09,12.85,36.31,25.52,97.08,21.45,145.54-6.58,78.45-34.55,113.34-56.91,128.79,0,0-12.06,10.31-37.12,19.72-25.06,9.42-56.63,10.77-56.63,10.77,0,0-111.41,10.81-174.3-48.74,1.78,6.31,2.94,15.59-.75,21.23-2.1,3.22-5.53,4.85-10.19,4.85-1.94,0-4.12-.29-6.48-.85-9.89-2.37-21.23-9.3-32.01-18.31,15.3,18.21,36.3,35.37,53.1,39.4,2.36.57,4.54.85,6.48.85,4.65,0,8.08-1.63,10.19-4.85,3.69-5.64,2.53-14.91.75-21.23,62.89,59.56,167.3,42.74,167.3,42.74h.4c14.57,0,31.18-1.36,56.24-10.77,25.06-9.42,37.12-19.72,37.12-19.72,22.36-15.46,50.33-50.34,56.92-128.79,4.07-48.46-1.61-103.23-14.46-139.54Z"/>
      <path class="cls-22" d="m461.55,391.07c-5.53-13.73-12.53-26.98-21.4-38.62-114.11,23.48-199.18,47.98-199.18,47.98-34.57-1.13-77.12-3.14-77.12-3.14,0,1.64-2.72,11.05-6.47,23.23-.34,1.44-.7,2.91-1.06,4.42-5.5,22.55-6.84,44.34-8.96,51.49-.96.16-1.96.35-2.99.57.11.03-18.89,10.03-18.89,10.03,10,12,36.93,26.55,118,38,93.41,9.49,176.77,2.95,220.1-10.01,1.05-7,1.93-14.4,2.58-22.23,2.82-33.57,1-70.16-4.62-101.71Z"/>
      <path class="cls-22" d="m381.35,268.66s35.5,47.1-39.24,74.24l93.76-24.07s-9.2-29.77-54.53-50.17Z"/>
      <path class="cls-12" d="m279.17,657.94c-7.97,0-16.98-.33-26.65-1.26-29.02-2.77-69.05-11.61-101.19-37.44.13,4.48-.54,9.31-3.07,13.17-1.99,3.04-5.95,6.66-13.53,6.66-2.26,0-4.75-.32-7.41-.96-30.02-7.21-71.1-52.27-76.29-77.38-2.3-11.15-.2-21.43,5.94-28.97,5.42-6.65,13.6-10.46,22.47-10.46,4.64,0,9.36,1.03,13.96,3.03-.44-2.23-.39-2.67-.34-3.02,4-29.8,33.55-42.08,50.76-44.9,2.12-7.15,8.46-28.93,13.96-51.49,12.6-51.65,9.02-59.12,8.47-59.89-.03-.03-.06-.05-.09-.08-.23-.16-.79-.5-1.25-.77-6.72-4.03-27.16-16.3-8.63-51.39,14.79-28.01,43.53-45.36,65.04-54.98,26.92-12.04,58.23-18.95,85.88-18.95h0c2.12,0,4.28.03,6.41.1,26.14.79,50.25,8.14,71.66,21.85,0,0,0,0,.01,0,.01,0,.03.02.04.02,1.7,1.11,3.47,2.33,5.56,3.83,1.15.82,2.38,1.73,3.84,2.84,1.99,1.34,24.44,17.05,44.66,53.35,5.01,9,9.45,19.04,13.58,30.7,13.02,36.8,18.78,92.23,14.67,141.21-6.7,79.87-35.46,115.67-58.47,131.64-1.64,1.36-14.01,11.22-38.14,20.29-25.79,9.7-42.95,11.03-57.64,11.03h-.09c-2.29.35-15.32,2.2-34.11,2.2Zm-133.5-52.94c1,0,1.99.37,2.75,1.1,31.61,29.93,74.36,39.69,104.66,42.61,33.1,3.19,59-.87,59.26-.91.21-.03.42-.05.63-.05h.4c13.94,0,30.23-1.27,54.83-10.52,23.98-9.01,35.82-18.93,35.93-19.03.1-.09.21-.17.32-.25,21.62-14.94,48.75-48.9,55.2-125.84,4.02-47.94-1.57-102.06-14.24-137.87-3.97-11.23-8.23-20.87-13.02-29.47-19.79-35.53-41.29-50.05-42.2-50.65-.09-.06-.19-.13-.28-.2-1.38-1.05-2.57-1.93-3.7-2.73-1.99-1.44-3.65-2.58-5.24-3.62-.01,0-.02-.02-.04-.02-20.17-12.91-42.91-19.84-67.57-20.59-2.05-.06-4.12-.09-6.17-.09-52.63,0-120.83,26.05-143.85,69.66-14.99,28.4-.51,37.08,5.68,40.79,1.23.74,2.08,1.25,2.75,1.94,2.54,2.38,4.72,7.46,2.22,25.85-1.4,10.31-4.15,23.93-8.16,40.49-6.8,28.07-15.02,55.31-15.1,55.58-.46,1.53-1.78,2.63-3.37,2.82-16.72,1.95-42.72,13.63-46.32,37.86.25,1.3,1.1,5.03,1.63,7.17l.06.28c.18.74.35,1.39.52,2.04.43,1.63-.21,3.36-1.6,4.32-1.39.96-3.24.93-4.61-.05-5.71-4.12-11.81-6.3-17.62-6.3-6.45,0-12.37,2.74-16.26,7.51-4.59,5.63-6.12,13.55-4.31,22.3,4.56,22.06,43.77,64.84,70.33,71.22,2.05.49,3.92.74,5.54.74,4.35,0,5.98-1.73,6.84-3.04,2.74-4.19,1.92-12.02.25-17.96-.49-1.73.24-3.58,1.78-4.51.64-.39,1.36-.58,2.07-.58Zm20.62-239.92s0,0,.01,0c0,0,0,0-.01,0Zm-.33-.34s.08.09.13.14c-.04-.05-.09-.09-.13-.14Z"/>
      <g>
        <path class="cls-16" d="m439.35,332.66c-114.11,23.48-199.18,47.98-199.18,47.98-34.57-1.13-77.12-3.14-77.12-3.14,0,5.25-27.9,93.16-27.9,93.16,5.89,15.99,25.8,25.87,106.87,37.31,109.51,11.12,206.12-3.55,239.39-19.7,0,0,2.09-97.64-42.06-155.61Z"/>
        <path class="cls-12" d="m318.9,515.88c-24.33,0-50.29-1.18-77.29-3.92-.05,0-.1-.01-.16-.02-40.5-5.72-65.93-11.01-82.46-17.17-15.62-5.81-23.87-12.61-27.6-22.72-.31-.83-.33-1.75-.06-2.59,10.45-32.94,27.19-86.96,27.71-92.06.03-1.05.47-2.06,1.24-2.79.79-.75,1.86-1.15,2.95-1.1.42.02,42.4,2,76.44,3.12,7.91-2.25,90.93-25.67,198.87-47.88,1.51-.31,3.06.27,3.99,1.49,23.32,30.61,33.73,72.01,38.36,101.34,4.99,31.65,4.54,55.77,4.52,56.78-.03,1.5-.9,2.86-2.25,3.51-24.1,11.7-85.66,24-164.26,24Zm-76.4-11.87c109.97,11.15,202.09-3.7,234.92-18.29-.07-15.25-2.27-97.35-39.75-148.62-111.42,23.03-195.55,47.15-196.39,47.39-.4.12-.82.16-1.24.15-28.58-.94-62.99-2.49-73.78-2.99-3.83,15.86-20.64,69.22-26.87,88.85,5.71,13.1,25,22.47,103.11,33.5Zm-83.45-126.57s0,.05,0,.07c0-.02,0-.04,0-.07Z"/>
      </g>
      <g>
        <path class="cls-19" d="m158.65,367.23l2.54,18.36c.12.93.87,1.64,1.8,1.73l66.2,5.06s.03-.19.07-.54c1.3-11.03-6.82-20.95-17.88-22.01l-50.55-4.85c-1.28-.12-2.34.98-2.17,2.25Z"/>
        <path class="cls-12" d="m229.18,396.38c-.1,0-.2,0-.3-.01l-66.2-5.06c-2.88-.27-5.09-2.41-5.46-5.2l-2.53-18.33s0-.02,0-.03c-.24-1.82.36-3.63,1.63-4.95,1.28-1.32,3.06-1.98,4.89-1.8l50.55,4.85c6.47.62,12.28,3.75,16.36,8.8,4.04,5.01,5.86,11.28,5.11,17.65-.05.46-.1.72-.1.72-.33,1.94-2.01,3.36-3.95,3.36Zm-64.25-12.92l60.39,4.62c-.28-3.04-1.45-5.95-3.43-8.39-2.72-3.37-6.59-5.45-10.9-5.87l-48.03-4.61,1.97,14.26Zm.22,1.56v.02s0-.02,0-.02Z"/>
      </g>
      <path class="cls-19" d="m441.87,316.54l5.57,16.53c.04.93-.56,1.77-1.46,2.02l-216.8,57.29s-1.38-21.8,14.28-27.16l195.88-50.51c1.24-.35,2.48.55,2.54,1.83Z"/>
      <path class="cls-9" d="m369.71,332.66s6.2,5.84,2.68,19.62l75.05-19.22-5.57-16.53-72.16,16.12Z"/>
      <path class="cls-12" d="m229.18,396.38c-.83,0-1.65-.26-2.34-.75-.97-.7-1.58-1.8-1.65-2.99-.06-1.01-1.36-24.92,16.98-31.2.1-.03.2-.06.3-.09l195.88-50.51c1.69-.48,3.56-.14,5.05.93,1.3.94,2.15,2.33,2.41,3.88l5.44,16.14c.12.35.19.72.2,1.09.13,2.82-1.67,5.31-4.38,6.06l-216.85,57.31c-.34.09-.68.13-1.02.13Zm15.44-27.33c-8.31,2.94-10.63,12.22-11.25,18.08l209.43-55.34-4.29-12.74-193.89,50Zm195.8-50.49l-.08.02s.05-.01.08-.02Z"/>
      <path class="cls-12" d="m226.74,505.21h-.08c-1.9-.04-3.41-1.62-3.37-3.52l2.44-109.39c.04-1.88,1.58-3.37,3.44-3.37h.08c1.9.04,3.41,1.62,3.37,3.52l-2.44,109.39c-.04,1.88-1.58,3.37-3.44,3.37Z"/>
      <g>
        <g>
          <path class="cls-4" d="m232.92,446.62c-11.22,0-21.54-1.2-30.66-3.59-1.77-.46-2.82-2.27-2.36-4.04.46-1.77,2.27-2.82,4.04-2.36,11.66,3.06,31.78,5.61,61.4.32,1.8-.32,3.52.88,3.84,2.68s-.88,3.52-2.68,3.84c-11.79,2.1-23.08,3.15-33.58,3.15Z"/>
          <g>
            <circle class="cls-4" cx="196.72" cy="438.8" r="8.79"/>
            <path class="cls-20" d="m196.72,450.09s-.09,0-.14,0c-3.02-.04-5.84-1.24-7.94-3.4s-3.25-5-3.21-8.02c.07-6.18,5.12-11.15,11.29-11.15.05,0,.09,0,.14,0,3.01.04,5.83,1.24,7.94,3.4s3.25,5,3.21,8.02c-.04,3.01-1.24,5.83-3.4,7.94-2.12,2.08-4.92,3.21-7.88,3.21Zm0-17.58c-3.43,0-6.25,2.77-6.29,6.21-.02,1.68.62,3.27,1.79,4.47,1.17,1.2,2.75,1.88,4.42,1.89.03,0,.05,0,.08,0,1.65,0,3.21-.63,4.39-1.79,1.2-1.17,1.87-2.75,1.89-4.42.02-1.68-.62-3.27-1.79-4.47-1.17-1.2-2.74-1.88-4.42-1.89-.03,0-.05,0-.08,0Z"/>
          </g>
          <g>
            <circle class="cls-4" cx="272.29" cy="440.06" r="8.79"/>
            <path class="cls-20" d="m272.3,451.35s-.09,0-.14,0c-3.01-.04-5.83-1.24-7.94-3.4-2.11-2.16-3.25-5-3.21-8.02.08-6.18,5.12-11.15,11.29-11.15.05,0,.09,0,.14,0,6.22.07,11.23,5.2,11.15,11.42-.04,3.01-1.24,5.84-3.4,7.94-2.12,2.07-4.92,3.21-7.88,3.21Zm0-17.58c-3.43,0-6.25,2.77-6.29,6.21-.02,1.68.62,3.26,1.79,4.47,1.17,1.2,2.75,1.87,4.42,1.89.03,0,.05,0,.08,0,1.65,0,3.21-.63,4.39-1.79,1.2-1.17,1.88-2.74,1.89-4.42.04-3.47-2.75-6.32-6.21-6.36-.03,0-.05,0-.08,0Zm8.79,6.39h0,0Z"/>
          </g>
        </g>
        <g>
          <path class="cls-4" d="m228.87,412.82c-9.24,0-17.84-.88-25.59-2.64-1.78-.41-2.9-2.18-2.49-3.96s2.18-2.9,3.96-2.49c11.74,2.67,31.91,4.52,61.37-1.76,1.78-.38,3.54.76,3.93,2.54.38,1.79-.76,3.54-2.54,3.93-13.67,2.92-26.69,4.38-38.63,4.38Z"/>
          <g>
            <circle class="cls-4" cx="197.62" cy="406.18" r="8.79"/>
            <path class="cls-20" d="m197.61,417.47c-2.93,0-5.71-1.12-7.83-3.16-2.17-2.09-3.4-4.91-3.45-7.92s1.07-5.87,3.16-8.04c2.09-2.17,4.91-3.4,7.92-3.45,3-.05,5.87,1.07,8.04,3.16,2.17,2.09,3.4,4.91,3.45,7.92s-1.07,5.87-3.16,8.04c-2.09,2.17-4.91,3.4-7.92,3.45-.07,0-.14,0-.21,0Zm.01-17.58s-.08,0-.12,0c-1.68.03-3.25.71-4.41,1.92-1.17,1.21-1.79,2.8-1.76,4.48.03,1.68.71,3.25,1.92,4.41,1.21,1.17,2.81,1.82,4.48,1.76,1.68-.03,3.25-.71,4.41-1.92,1.17-1.21,1.79-2.8,1.76-4.48h0c-.03-1.68-.71-3.25-1.92-4.41-1.18-1.14-2.72-1.76-4.36-1.76Z"/>
          </g>
          <g>
            <circle class="cls-4" cx="273.19" cy="404.79" r="8.79"/>
            <path class="cls-20" d="m273.19,416.08c-6.13,0-11.17-4.93-11.29-11.08-.11-6.22,4.86-11.38,11.08-11.49,6.23-.12,11.38,4.86,11.49,11.08.11,6.22-4.86,11.38-11.08,11.49-.07,0-.14,0-.21,0Zm0-17.58s-.08,0-.12,0c-3.47.06-6.23,2.93-6.17,6.4.06,3.43,2.87,6.17,6.29,6.17.04,0,.08,0,.12,0,3.47-.06,6.23-2.94,6.17-6.4h0c-.06-3.43-2.87-6.17-6.28-6.17Z"/>
          </g>
        </g>
        <g>
          <path class="cls-4" d="m231.41,480.52c-11.22,0-21.54-1.2-30.66-3.59-1.77-.46-2.82-2.27-2.36-4.04.46-1.77,2.27-2.82,4.04-2.36,11.66,3.06,31.78,5.61,61.4.32,1.8-.32,3.52.88,3.84,2.68s-.88,3.52-2.68,3.84c-11.79,2.1-23.08,3.15-33.58,3.15Z"/>
          <g>
            <circle class="cls-4" cx="195.2" cy="472.7" r="8.79"/>
            <path class="cls-20" d="m195.2,483.98s-.09,0-.14,0c-3.02-.04-5.84-1.24-7.94-3.4s-3.25-5-3.21-8.02c.07-6.18,5.12-11.15,11.29-11.15.05,0,.09,0,.14,0,6.22.08,11.23,5.2,11.15,11.42l-2.5-.03,2.5.03c-.04,3.02-1.24,5.84-3.4,7.94-2.12,2.07-4.92,3.21-7.88,3.21Zm0-17.58c-3.43,0-6.24,2.77-6.29,6.21-.02,1.68.62,3.27,1.79,4.47,1.17,1.2,2.75,1.88,4.42,1.89.03,0,.05,0,.08,0,1.65,0,3.21-.63,4.39-1.79,1.2-1.17,1.87-2.74,1.89-4.42h0c.04-3.47-2.75-6.32-6.21-6.36-.03,0-.05,0-.08,0Z"/>
          </g>
          <g>
            <circle class="cls-4" cx="270.78" cy="473.96" r="8.79"/>
            <path class="cls-20" d="m270.78,485.25s-.09,0-.14,0c-3.01-.04-5.83-1.24-7.94-3.4-2.11-2.16-3.25-5-3.21-8.02.08-6.18,5.12-11.15,11.29-11.15.05,0,.09,0,.14,0,3.01.04,5.83,1.24,7.94,3.4,2.11,2.16,3.25,5,3.21,8.02-.04,3.01-1.24,5.83-3.4,7.94-2.12,2.07-4.92,3.21-7.88,3.21Zm0-17.58c-3.43,0-6.25,2.77-6.29,6.21-.02,1.68.62,3.27,1.79,4.47,1.17,1.2,2.74,1.88,4.42,1.89,1.72,0,3.27-.62,4.47-1.79,1.2-1.17,1.88-2.74,1.89-4.42.02-1.68-.62-3.27-1.79-4.47-1.17-1.2-2.74-1.88-4.42-1.89-.03,0-.05,0-.08,0Z"/>
          </g>
        </g>
      </g>
      <path class="cls-12" d="m219.07,304.2c-7.09,5.32-4.95,11.89,2.97,12.88,7.93.99,8.54,1.51,15.85-3.96,7.92-5.94,8.91-15.85,0-14.86-8.91.99-14.86,2.97-18.82,5.94Z"/>
      <circle class="cls-12" cx="189.36" cy="308.17" r="8.91"/>
      <circle class="cls-12" cx="292.37" cy="283.41" r="8.91"/>
      <path class="cls-12" d="m173.44,365.36c-2.21,0-4-1.79-4-4s1.79-4,4-4c9.78,0,40.34-11.69,50.05-29.33.53-.96,1.42-1.66,2.48-1.94,1.06-.28,2.18-.11,3.12.46,9.83,6.04,20.68,8.97,33.17,8.97s25.15-3,37.12-6.63c.05-.02.1-.03.15-.05,1.85-.56,3.68-1.13,5.49-1.71,2.11-.67,4.36.49,5.03,2.59.67,2.1-.49,4.36-2.59,5.03-14.23,4.55-29.56,8.77-45.2,8.77-12.58,0-23.72-2.68-33.92-8.17-13.06,18.76-43.76,30.01-54.9,30.01Z"/>
      <path class="cls-5" d="m415.16,545.86c-29.43-28.49-91.24-21.47-111.25,29.4-11.5,29.24-11.53,47.28-11.53,47.28,0,0,66.83,7.92,99.15-26.74,31.43-33.7,23.64-49.94,23.64-49.94Z"/>
      <path class="cls-12" d="m305.6,577.8c-.54,0-1.09-.11-1.61-.34-2.02-.89-2.94-3.25-2.05-5.27,10.91-24.73,31.79-41.78,57.29-46.77,22.8-4.46,45.38,1.56,60.4,16.11,1.59,1.54,1.63,4.07.09,5.66-1.54,1.59-4.07,1.63-5.66.09-13.15-12.73-33.07-17.96-53.3-14.01-22.9,4.48-41.67,19.84-51.51,42.15-.66,1.5-2.13,2.39-3.66,2.39Z"/>
      <path class="cls-12" d="m152.25,596.94c-3.39-7.74-29.64-61.98-46.31-74.8-2.23-1.72-4.56-3.23-6.94-4.52-10.94-13.72-25.44-21.58-37.12-20.06-5.34.7-12.59,3.63-16.87,13.63-1.03,2.16-12.77,28.05-1.12,65.69,4.44,14.36,10.84,17,17.03,19.55,7.01,2.89,14.96,6.16,24.98,30.61.05.12.11.25.17.37,4.01,7.51,14.75,19.64,29.75,19.64,2.65,0,5.43-.38,8.32-1.23,11.9-3.48,23.55-7.67,28.2-14.71,7.06-10.71,3.03-27.03-.09-34.17Z"/>
      <g>
        <path class="cls-18" d="m123.39,578.47c-2.31-3.91-11.38-13.72-13.59-27.32-6.4-39.32-49.3-66.19-61.15-38.31,0,0-12.52,25.44-.95,62.85,8.76,28.31,22.73,3.1,41.9,49.82,0,0,12.33,23.36,33.42,16.46,28.09-9.19,19.03-31.94.37-63.5Z"/>
        <path class="cls-12" d="m115.42,647.23c-14.68,0-25.32-12.2-29.36-19.85-.06-.11-.12-.23-.16-.35-10.03-24.45-17.97-27.72-24.98-30.61-6.19-2.55-12.59-5.19-17.03-19.55-11.65-37.64.09-63.54,1.12-65.69,4.25-9.91,12.61-14.88,22.97-13.63,18.3,2.21,41.05,24.01,45.77,52.95,1.61,9.86,7.31,17.75,10.71,22.46,1.01,1.4,1.81,2.5,2.38,3.47h0c13.87,23.46,21.48,40.62,16.57,53.65-2.73,7.24-8.99,12.37-19.14,15.69-3.09,1.01-6.04,1.46-8.85,1.46Zm-22.2-23.44c1.09,1.98,11.58,19.94,28.56,14.38,7.7-2.52,12.32-6.09,14.14-10.91,3.77-10-3.66-25.93-15.97-46.76h0c-.38-.65-1.12-1.67-1.97-2.85-3.82-5.29-10.21-14.13-12.12-25.87-4.07-25.01-23.73-44.47-38.83-46.29-6.88-.83-11.83,2.17-14.69,8.91-.03.07-.06.14-.09.2-.11.23-11.63,24.62-.71,59.91,3.33,10.76,6.95,12.25,12.44,14.52,8.02,3.3,17.99,7.42,29.25,34.77Z"/>
      </g>
      <path class="cls-12" d="m115.89,571.65c-1.03-1.57-2.35-17.73-5.31-17.64-19.4,18.41-53.53,32-55.71,31.14-2.37.41-2.79,3.93-.55,4.86,0,0,10.88,4.06,14.2,6.6,1.21.92,31.32-7.28,47.37-24.96Z"/>
      <path class="cls-12" d="m142,611.46l-7.14-12.37c-.47-.81-1.37-1.32-2.33-1.28l-11.03.36c-.41.01-.81.12-1.17.32l-28.97,15.79c-1.24.67-1.68,2.2-.98,3.4l9.62,16.67c3.73,6.46,10.6,10.13,17.61,10.13,3.22,0,6.46-.77,9.44-2.4l7.61-4.15c9.48-5.17,12.77-17.05,7.33-26.48Z"/>
      <path class="cls-6" d="m388.94,264.49c-.62,0-1.17.02-1.61.06-1.54.13-2.9,1.04-3.6,2.42-.7,1.38-.63,3.02.17,4.33,1.71,2.79,5.26,6.57,9.51,10.12l1.12.95c31.99,27.28,56.41,33.01,71.26,33.01,5.47,0,10.78-.76,15.78-2.26,23.11-6.94,37.4-21.45,43.06-32.71,2.46-4.91,2.83-8.16,2.83-9.67,0-2.28-1.73-4.2-4-4.43-3.15-.32-10.8-.47-23.39-.47-6.54,0-13.99.04-21.9.08-8.99.05-18.59.09-28.17.09-17.67,0-42.96-.15-58.57-1.41-.86-.07-1.69-.1-2.48-.1h0Z"/>
      <path class="cls-2" d="m527.46,270.73c-.32-.03-57.64,54.91-137.54,2.04-16.35-10.82-6.17,2.23,4.61,10.26,52.45,45.98,101.91,41.84,130.1-1.96,3.11-7.33,9.18-8.21,2.83-10.34Z"/>
      <path class="cls-12" d="m317.28,582c-3.8-23.32-32.65-79.14-65.42-61.71-26.07,17.6-21.83,51.98-17.9,77.82,2.97,27.27-27.77,73.75,45.55,65.22,13.58-1.58,24.99-8.47,30.63-20.65,7.82-20.49,12.06-35.94,7.14-60.69Z"/>
      <path class="cls-12" d="m465.79,319.37c-15.52,0-40.93-5.9-73.85-33.96l-1.11-.94c-4.61-3.84-8.38-7.89-10.34-11.08-1.52-2.48-1.64-5.63-.33-8.23,1.34-2.63,3.89-4.35,6.83-4.6,1.32-.11,3.04-.09,4.75.04,15.46,1.25,40.65,1.4,58.25,1.4,9.6,0,19.03-.05,28.15-.09,7.92-.04,15.37-.08,21.92-.08,12.9,0,20.46.16,23.79.49,4.33.44,7.6,4.05,7.6,8.41,0,2.27-.56,6.1-3.26,11.46-6.04,12.01-21.16,27.45-45.49,34.75-5.38,1.61-11.07,2.43-16.93,2.43Zm-76.84-50.88c-.61,0-1.03.02-1.28.05-.16.01-.29.1-.36.24-.07.14-.06.3.02.44,1.47,2.4,4.79,5.9,8.66,9.13l1.14.97c31.07,26.49,54.49,32.06,68.67,32.06,5.08,0,10-.7,14.63-2.09,21.89-6.57,35.35-20.16,40.64-30.68,2.17-4.32,2.4-6.94,2.4-7.87,0-.23-.17-.42-.4-.45-2.97-.3-10.71-.45-22.99-.45-6.54,0-13.97.04-21.88.08-9.13.05-18.57.09-28.19.09-17.74,0-43.14-.15-58.89-1.42-.74-.06-1.47-.09-2.16-.09Z"/>
      <g>
        <path class="cls-16" d="m226.31,92.9c-34.72,5.95-79.03,19.36-77.84,26.33,8.57,50,31.35,88.19,39.92,138.19,43.13,6.27,82.41-7.05,127.08-24.77-8.57-50,1.57-90.85-7-140.85-1.19-6.97-47.45-4.86-82.16,1.1Z"/>
        <path class="cls-14" d="m308.48,91.81c-.77-4.51-20.46-5.22-43.66-3.53,4.75.7,7.68,1.85,7.97,3.53,8.57,50,6.92,90.2,15.5,140.2-30.57,12.12-67.12,25.8-95.61,28.94,41.46,4.82,79.62-8.2,122.8-25.32-8.57-50,1.57-93.81-7-143.81Z"/>
        <path class="cls-7" d="m226.31,95.75c-34.72,5.95-79.03,19.36-77.84,26.33,8.57,50,31.35,79.92,39.92,129.92,43.13,6.27,87.14-1.27,125.72-21.55-8.57-50,2.94-85.8-5.63-135.8-1.19-6.97-47.45-4.86-82.16,1.1Z"/>
        <path class="cls-7" d="m226.31,95.75c-34.72,5.95-79.03,19.36-77.84,26.33,8.57,50,31.35,79.92,39.92,129.92,43.13,6.27,87.14-1.27,125.72-21.55-8.57-50,2.94-85.8-5.63-135.8-1.19-6.97-47.45-4.86-82.16,1.1Z"/>
        <path class="cls-4" d="m180.25,111.3c-9.14,2.85-15.39,5.29-19.49,7.21l49.42,105.68,26.24-4.5,11.91-122.8c-6.7.79-13.34,1.74-19.53,2.8-15.71,2.69-33.87,7.03-48.56,11.61Z"/>
        <g>
          <path class="cls-7" d="m307.98,165.02c.38-21.88.77-44.51-3.3-68.8-2.13-1.02-10.01-2.43-28.04-1.75-15.38.58-33.94,2.54-49.66,5.23-15.72,2.69-33.87,7.03-48.56,11.61-17.24,5.37-24.19,9.32-25.85,10.99,4.26,24.31,12.07,46.29,19.63,67.55,3.67,10.33,7.4,20.84,10.77,31.72,41.45-3.16,83.43-11.7,124.91-25.62-.25-10.54-.08-20.82.09-30.93Z"/>
          <path class="cls-7" d="m190.35,282.77c4.33,6.01,15.17,6.38,23.49,5.64,33.8-3.03,59.18-17.16,71.3-25.3,10.41-7,17.37-13.62,21.51-18.58-38.73,11.45-77.9,18.21-116.65,20.27-1.78,5.45-3.2,13.06.34,17.98Z"/>
          <path class="cls-19" d="m311.47,235.69c-.03-.12-.06-.24-.08-.37-2.29-13.66-3.2-26.71-3.51-39.37-41.48,13.92-83.46,22.46-124.91,25.62,3.59,11.6,6.78,23.62,9.06,36.33.14.78.04,1.58-.27,2.3-.51,1.16-1.15,2.75-1.75,4.59,38.75-2.07,77.92-8.83,116.65-20.27,3.31-3.97,4.82-6.88,4.82-8.05v-.77Z"/>
        </g>
        <path class="cls-9" d="m188.39,252.01v8.27c34.65,3.38,91.12-10.39,127.08-24.65-2.35-13.72-3.29-27.98-3.6-41.02-9.16,3.15-18.34,6.04-27.54,8.66,1.03,8.98,2.3,18.18,3.94,27.74-30.99,16.71-99.88,21-99.88,21Z"/>
        <path class="cls-7" d="m226.31,95.75c-34.72,5.95-79.03,19.36-77.84,26.33,8.57,50,31.35,88.19,39.92,138.19,43.13,6.27,82.41-7.05,127.08-24.77-8.57-50,1.57-90.85-7-140.85-1.19-6.97-47.45-4.86-82.16,1.1Z"/>
        <path class="cls-12" d="m317.48,234.62c-94.68,27.36-127.34,23.87-127.34,23.87-6.07,13.87-10.05,37.14,26.06,33.9,60.11-5.4,101.27-45.21,101.27-55.92,0-.96,0-1.87,0-1.84Z"/>
        <path class="cls-12" d="m207.84,296.69c-11.5,0-19.55-3.1-23.98-9.24-6.55-9.08-3.01-21.83.08-29.31-4.33-23.52-11.93-44.92-19.28-65.61-7.76-21.84-15.78-44.42-20.13-69.76-.82-4.79,4.32-8.1,8.89-10.45,4.59-2.36,11.07-4.91,19.27-7.58,15.65-5.09,35.44-9.92,52.95-12.92,17.51-3,37.78-5.04,54.23-5.45,8.62-.22,15.58.03,20.69.73,5.09.7,11.04,2.11,11.86,6.89,4.35,25.37,3.95,48.66,3.56,71.17-.37,21.58-.76,43.89,3.13,67.8.14.31.24.63.3.98.05.27.07.53.06.79v.69s0,.06,0,.09v.96c0,14.64-45.41,54.57-104.92,59.91-2.36.21-4.6.32-6.72.32Zm-55.27-174.4c4.26,24.31,12.07,46.29,19.63,67.55,7.58,21.34,15.43,43.42,19.83,68.05.14.78.04,1.58-.27,2.3-2,4.59-6.15,15.99-1.4,22.57,4.33,6.01,15.17,6.38,23.49,5.64,33.8-3.03,59.18-17.16,71.3-25.3,18.75-12.6,26.33-24,26.33-26.64v-.77c-.03-.12-.06-.24-.08-.37-4.19-25.03-3.8-48.04-3.41-70.3.38-21.88.77-44.51-3.3-68.8-2.13-1.02-10.01-2.43-28.04-1.75-15.38.58-33.94,2.54-49.66,5.23-15.72,2.69-33.87,7.03-48.56,11.61-17.24,5.37-24.19,9.32-25.85,10.99Zm166.9,113.21h0,0Z"/>
        <path class="cls-21" d="m272.67,59.29c28.95,9.43,19.34,51.71-11.07,51.68,27.54,23.9-16.85,52.22-41.53,38.11-.99,4.33.57,48.19,8.22,67.66,0,0-.91,1.5-1.9,1.73-.87.2-3.17-.39-3.17-.39-10.38-15.8-41.14-76.08-28.91-139.67,23.27-120.94,146.44-69.67,78.36-19.12Z"/>
        <path class="cls-11" d="m266.14,55.29c28.95,9.43,19.34,51.71-11.07,51.68,27.54,23.9-16.85,52.22-41.53,38.11-.99,4.33.57,48.19,8.22,67.66,0,0-.91,1.5-1.9,1.73-.87.2-3.17-.39-3.17-.39-10.38-15.8-41.14-76.08-28.91-139.67,23.27-120.94,146.44-69.67,78.36-19.12Z"/>
        <g>
          <path class="cls-20" d="m244.26,220.96c2.35,13.72-6.61,25.76-18.96,26.81-11.32.96-21.46-7.82-23.47-19.54-2.01-11.72,4.63-23.37,15.62-26.24,12-3.13,24.46,5.24,26.81,18.96Z"/>
          <path class="cls-11" d="m217.97,205.04c2.46-.61,4.98-.68,7.49-.19,1.22.24,2.44.61,3.6,1.11,1.17.5,2.3,1.12,3.36,1.86,1.07.74,2.08,1.6,3,2.56.93.97,1.78,2.04,2.51,3.19,1.53,2.4,2.57,5.09,3.06,7.96.49,2.88.41,5.75-.23,8.53-.31,1.33-.75,2.62-1.3,3.84-.55,1.21-1.21,2.35-1.98,3.41-.76,1.05-1.62,2.02-2.55,2.87-.94.86-1.96,1.61-3.03,2.24-2.2,1.3-4.61,2.07-7.13,2.31-2.48.24-4.93-.05-7.28-.84-1.12-.38-2.21-.87-3.25-1.46-1.02-.58-2-1.27-2.91-2.04-.9-.77-1.75-1.62-2.51-2.54-.77-.93-1.46-1.93-2.06-2.98-1.24-2.17-2.08-4.54-2.51-7.05-.43-2.51-.42-5.02.02-7.48.21-1.19.53-2.36.95-3.49.41-1.12.92-2.21,1.52-3.23.6-1.03,1.3-2,2.06-2.89.78-.9,1.65-1.73,2.58-2.46,1.96-1.53,4.17-2.62,6.58-3.22m-.22-1.27c-10.19,2.58-16.38,13.35-14.52,24.22,1.86,10.87,11.29,18.96,21.76,18,11.34-1.04,19.51-12.14,17.36-24.71-2.16-12.57-13.55-20.32-24.59-17.52h0Z"/>
          <path class="cls-11" d="m206.08,227.51c1.13,6.57,5.49,11.83,11.04,13.99l-10.95-20.99c-.45,2.23-.5,4.6-.09,7Zm26.54-5.5c-.39-2.27-1.44-3.69-2.31-4.78-1.13-1.33-2.17-2.43-2.43-3.93-.29-1.67.64-3.48,2.35-3.86.08-.02.15-.02.23-.04-3.58-2.28-7.87-3.13-12.11-2.11-5.48,1.32-9.6,5.46-11.45,10.61.35-.06.67-.12.95-.18,1.55-.32,3.94-1.05,3.94-1.05.81-.23,1.14,1.11.34,1.39,0,0-.8.28-1.7.51l8.8,17.64,1.54-11.98-3.76-6.99c-.86.12-1.67.17-1.67.17-.85.12-.99-1.32-.15-1.45,0,0,2.63-.32,4.2-.65,1.69-.35,4.31-1.14,4.31-1.14.89-.24,1.24,1.15.36,1.45,0,0-.88.3-1.86.55l9.4,18.27.78-6.2c.36-2.74.51-4.67.24-6.24Zm-10.7,4.37l-2.21,15.87c1.51.31,3.07.4,4.67.23,1.92-.2,3.73-.76,5.38-1.6-.06-.07-.11-.15-.16-.23l-7.68-14.27Zm12.95-12.98c.18.58.33,1.2.45,1.89.32,1.89.34,4.07-.23,6.89l-2.62,16.95c4.72-3.8,7.34-10.29,6.16-17.2-.56-3.26-1.89-6.16-3.76-8.53Z"/>
        </g>
        <path class="cls-17" d="m204.91,261.97c-5.44.32-8.88.27-10.61.2-.84-.04-1.6.45-1.92,1.23-5.77,13.59-9.02,29.15,38.36,24.28,1.36-.14-34.27-7.15-24.9-24.2.38-.7-.13-1.55-.93-1.5Z"/>
      </g>
      <path class="cls-12" d="m104.58,648.59c-10,0-18.43-6.79-22.11-13.36l-7.91-14.11c-1.08-1.93-.39-4.37,1.53-5.45l37.52-21.04c.55-.31,1.13-.47,1.72-.5.51-.14,1.04-.23,1.57-.25l11.03-.37c2.42-.1,4.73,1.18,5.95,3.35l7.14,12.73h0c6.4,11.42,2.92,23.07-8.87,29.68-.18.1-.36.18-.55.26-5.62,2.11-14.71,5.6-16.69,6.58-3.54,1.74-7.02,2.49-10.33,2.49Zm-21.08-27.9l5.96,10.62c3.13,5.57,11.84,12.57,21.93,7.61,2.83-1.39,14.7-5.87,17.12-6.78,7.69-4.43,9.71-11.21,5.54-18.64l-6.71-11.97-9.81.33c-.37.19-.75.32-1.14.39l-32.89,18.44Zm34.34-19h0s0,0,0,0Zm10.41-.19h-.03s.02,0,.03,0Z"/>
      <g>
        <path class="cls-18" d="m90.4,635.28c5.57,9.66,16.78,13.84,25.04,9.33l7.61-4.15c8.26-4.5,10.44-15.98,4.87-25.64l-8.36-14.5-37.52,20.45,8.36,14.5Z"/>
        <path class="cls-12" d="m108.24,650.41c-8.12,0-16.53-4.84-21.31-13.13l-8.36-14.5c-.54-.93-.68-2.04-.39-3.08.29-1.04.99-1.91,1.94-2.43l37.52-20.45c1.91-1.04,4.29-.37,5.38,1.51l8.36,14.5c3.51,6.09,4.53,13.14,2.78,19.35-1.45,5.17-4.72,9.36-9.2,11.8l-7.61,4.15c-2.84,1.55-5.95,2.28-9.11,2.28Zm-20.69-28.07l6.31,10.95h0c4.49,7.78,13.31,11.29,19.66,7.82l7.61-4.15c3.3-1.8,4.72-4.77,5.33-6.94,1.17-4.14.43-8.95-2.01-13.19l-6.41-11.12-30.49,16.62Z"/>
      </g>
      <g>
        <path class="cls-18" d="m239.96,513.86s-19.7,19.51-18.36,55.44c.94,25.21,15.19,7.23,11.49,54.42-1.7,21.66,11.48,34.38,41.13,34.9,9.28.16,15.45-22.74,20.25-62.16.51-4.19,2.12-12.59,0-30.5-4.28-36.25-29.2-72.42-54.51-52.1Z"/>
        <path class="cls-12" d="m274.34,662.63c-.06,0-.13,0-.19,0-17.26-.3-29.81-4.64-37.3-12.88-5.99-6.59-8.6-15.45-7.74-26.33,2.07-26.44-1.5-30.78-4.96-34.97-2.86-3.47-6.11-7.41-6.54-18.99-1.39-37.26,18.69-57.58,19.54-58.43.1-.1.2-.19.31-.28,8.56-6.87,17.89-8.54,26.99-4.82,18.6,7.61,31.18,35.72,34,59.56,1.97,16.69.8,25.46.17,30.17-.06.47-.12.9-.17,1.29-5.74,47.21-12.51,65.68-24.09,65.68Zm-31.69-145.8c-1.63,1.73-18.25,20.22-17.06,52.32.33,8.88,2.27,11.22,4.72,14.2,5.32,6.46,8.92,13.16,6.76,40.69-.67,8.59,1.24,15.43,5.69,20.32,5.95,6.55,16.56,10,31.52,10.27h.02c1.72,0,4.81-3.51,7.89-13.42,3.08-9.94,5.8-24.73,8.29-45.22.05-.42.11-.88.18-1.38.58-4.36,1.67-12.48-.18-28.17-2.92-24.68-15.42-47.51-29.08-53.1-6.26-2.56-12.58-1.39-18.76,3.5Z"/>
      </g>
      <path class="cls-12" d="m292.09,579.96c-.66-.48-1.51-.62-2.29-.38-27.68,8.73-66.09-3.38-66.48-3.5-.98-.31-2.06-.01-2.73.77-.67.78-.81,1.89-.35,2.82l6.27,12.6c.27.54.72.97,1.27,1.21.92.4,16.46,7.03,36.4,7.03,8.55,0,17.91-1.22,27.27-4.67,1.01-.37,1.68-1.33,1.68-2.41v-11.4c0-.82-.39-1.59-1.05-2.07Z"/>
      <path class="cls-12" d="m294.24,617.06c-.09-.87-.61-1.64-1.38-2.03s-1.7-.38-2.46.06l-10.16,5.89-39.35-2.25h0c-.68-.04-1.35.19-1.85.65-.51.45-.82,1.09-.85,1.77l-.75,13.44c-.72,12.86,8.37,23.37,21.17,24.09l10.26.57c.07,0,.13,0,.2,0,6.55-.14,11.99-2.6,16.16-7.29,11.52-12.99,9.14-33.8,9.03-34.89Z"/>
      <path class="cls-12" d="m296.76,616.63c-.26-1.1-1.22-1.9-2.36-1.97l-56.21-3.13c-.5-.03-1,.09-1.43.34l-11.95,6.92c-.98.57-1.47,1.72-1.21,2.82.26,1.1,1.22,1.9,2.36,1.97l56.21,3.13c.5.03,1-.09,1.43-.34l11.95-6.92c.98-.57,1.47-1.72,1.21-2.82Z"/>
      <g>
        <path class="cls-18" d="m247.91,659.92l11.39.64c25.51,1.42,24.47-35.99,24.47-35.99l-56.18-3.13s-2.08,37.24,20.32,38.49Z"/>
        <path class="cls-12" d="m260.72,664.6c-.54,0-1.09-.02-1.64-.05l-11.39-.63h0c-7.74-.43-17.88-4.73-22.22-22.77-2.39-9.92-1.89-19.53-1.87-19.94.12-2.21,2.02-3.88,4.22-3.77l56.18,3.13c2.08.12,3.72,1.8,3.78,3.88.03.92.5,22.68-10.91,33.77-4.35,4.23-9.78,6.38-16.14,6.38Zm-12.59-8.67l11.39.63c4.81.27,8.66-1.06,11.76-4.08,6.08-5.92,8-17.33,8.41-24.15l-48.12-2.68c.22,8.88,2.28,29.47,16.56,30.27h0Z"/>
      </g>
      <g>
        <path class="cls-5" d="m429.1,505.41c-14.82,7.96-27.61,4.87-32.1,1.51-6.47-4.84-9.02-15.01-6.5-25.9.23-.98.54-2.03.91-3.11,2.41-6.92,7.59-15.15,13.07-23.87,6.69-10.64,14.52-30.32,41.31-15.97,42.8,22.93,2.43,57.06-16.7,67.34Z"/>
        <path class="cls-22" d="m455.24,462.18c-5.42,12.6-15.3,24.32-34.43,34.59-11.37,6.11-20.82,6.45-26.96,4.41,1.25,3.63.42,3.67,3.16,5.73,4.49,3.36,17.28,6.46,32.1-1.51,19.13-10.28,29-22,34.43-34.59,11.78-27.37,32.55-51.96,8.27-63.64,4.87,15.02-9.89,39.5-16.56,55.01Z"/>
        <path class="cls-12" d="m409.84,510.49c-6.89,0-12.37-1.93-15.4-4.17-7.6-5.6-10.68-17-7.86-29.04.26-1.09.6-2.23,1.01-3.41,2.51-7.09,7.68-15.19,13.16-23.77.98-1.53,1.93-3.4,2.95-5.37,5.31-10.37,13.33-26.04,39.98-17.07,21.34,7.17,29.75,11.74,32.12,17.43,1.79,4.28-.06,8.04-1.84,11.68-.65,1.32-1.32,2.68-1.88,4.16h0c-5.04,13.24-22.56,33.93-42.08,44.26-7.32,3.88-14.26,5.3-20.17,5.3Zm19.56-77.51c-10.69,0-14.55,7.53-18.58,15.39-1.1,2.15-2.14,4.18-3.32,6.03-5.22,8.18-10.16,15.91-12.36,22.14-.32.9-.58,1.77-.77,2.57-2.06,8.78-.12,17.12,4.82,20.77,3.24,2.39,14.11,5.1,27.07-1.77,17.31-9.17,33.8-28.1,38.35-40.04h0c.7-1.83,1.48-3.43,2.17-4.84,1.26-2.57,2.01-4.19,1.64-5.08-1.21-2.9-10.39-7.25-27.29-12.93-4.66-1.57-8.51-2.25-11.74-2.25Zm38.95,26.52h0,0Z"/>
        <path class="cls-16" d="m488.86,413.58c1.25,9.67-33.75,69.25-33.75,69.25l-54.87-34.36s27.39-35.62,24.58-45.33c-3.42-11.82-11.78-15.3-16.21-25.87-9.49-22.68,47.42-19.26,56.08-21.9,0,0,20.8,32.12,24.17,58.2Z"/>
        <path class="cls-12" d="m450.27,495.21c-.84,0-1.67-.27-2.37-.77l-53.67-39.38c-1.75-1.28-2.16-3.72-.93-5.5.21-.3,20.48-29.8,24.67-47.88.58-2.82-6.51-14.21-14.88-23.91-1.44-1.67-1.26-4.2.41-5.64,1.67-1.44,4.2-1.26,5.64.41,5.64,6.53,18.56,22.61,16.62,30.95-3.72,16.04-18.16,38.96-23.72,47.38l47.03,34.5c11.99-20.3,36.45-64.71,35.76-78-.65-12.67-17.18-40.24-23.49-49.79-1.22-1.84-.71-4.32,1.13-5.54,1.84-1.22,4.33-.71,5.54,1.13.98,1.48,23.92,36.35,24.81,53.79.98,19.19-35.04,79.49-39.15,86.31-.58.96-1.54,1.64-2.64,1.86-.26.05-.52.08-.79.08Z"/>
        <g>
          <rect class="cls-16" x="404.26" y="419.58" width="61.48" height="74.2" transform="translate(-172.78 625.16) rotate(-61.89)"/>
          <rect class="cls-4" x="424.24" y="419.58" width="21.52" height="74.2" transform="translate(-172.78 625.16) rotate(-61.89)"/>
          <path class="cls-12" d="m453.24,505.27c-.65,0-1.3-.16-1.88-.47l-65.45-34.97c-1.95-1.04-2.68-3.46-1.64-5.41l28.97-54.23c.5-.94,1.35-1.63,2.37-1.94,1.01-.31,2.11-.2,3.05.3l65.45,34.97c.94.5,1.63,1.35,1.94,2.37.31,1.02.2,2.11-.3,3.05l-28.97,54.23c-.5.94-1.35,1.63-2.37,1.94-.38.12-.77.17-1.16.17Zm-60.03-40.61l58.39,31.2,25.2-47.17-58.39-31.2-25.2,47.17Z"/>
        </g>
      </g>
      <g>
        <path class="cls-14" d="m462.69,340.86c-1.27-2.21-3.51-3.51-5.87-3.68,1.04-2.13,1.04-4.72-.23-6.92-2.03-3.53-6.54-4.74-10.07-2.71,0,0-3.64,1.19-4.75,6.54l-19.46,5.63-3,1.73-14.64,14c-5.18-1.73-8.04.82-8.04.82-3.53,2.03-4.74,6.54-2.71,10.07,1.27,2.21,3.51,3.51,5.87,3.68-1.04,2.13-1.04,4.72.23,6.92,1.27,2.21,3.51,3.51,5.87,3.68-1.04,2.13-1.04,4.72.23,6.92s3.51,3.51,5.87,3.68c-1.04,2.13-1.04,4.72.23,6.92,1.99,3.45,6.34,4.68,9.83,2.83.15.45.35.89.6,1.32,2.03,3.53,6.54,4.74,10.07,2.71,1.13-.65,2.02-1.56,2.65-2.61.04.07.06.13.1.2,2.03,3.53,6.54,4.74,10.07,2.71,1.35-.77,2.34-1.91,2.96-3.22,1.81,1.17,4.08,1.5,6.19.85h0s0,0,0,0c.24-.08.48-.16.72-.26.26-.11.52-.23.78-.38h0s.06-.04.1-.06c.03-.02.07-.03.1-.05h0c.25-.15.49-.31.72-.48.21-.15.4-.32.58-.49,0,0,0,0,0,0h0c1.63-1.5,2.48-3.63,2.38-5.78,1.44.12,2.92-.17,4.27-.95,3.53-2.03,4.74-6.54,2.71-10.07-.04-.07-.08-.13-.12-.19,1.22-.01,2.45-.33,3.59-.98,3.53-2.03,4.74-6.54,2.71-10.07-.25-.43-.53-.82-.84-1.18,3.35-2.09,4.48-6.47,2.49-9.93-1.27-2.21-3.51-3.51-5.87-3.68,1.04-2.13,1.04-4.72-.23-6.92s-3.51-3.51-5.87-3.68c1.04-2.13,1.04-4.72-.23-6.92Z"/>
        <path class="cls-8" d="m441.89,407.28c-2.5,0-4.94-1.12-6.55-3.14-.6.68-1.31,1.27-2.11,1.72-1.94,1.12-4.2,1.41-6.35.83-2.16-.58-3.96-1.97-5.08-3.91-.09-.16-.18-.32-.26-.49-3.79,1.43-8.1-.06-10.17-3.67-1.17-2.03-1.42-4.42-.75-6.62-2.24-.52-4.18-1.95-5.35-3.98s-1.42-4.42-.75-6.62c-2.24-.52-4.18-1.95-5.35-3.98-1.17-2.03-1.42-4.42-.75-6.62-2.24-.52-4.18-1.95-5.35-3.98-2.29-3.98-.94-9.07,3-11.39.55-.44,3.48-2.52,8.34-1.13l14.21-13.6c.06-.06.12-.1.19-.14l3-1.73c.07-.04.14-.07.22-.09l18.89-5.46c1.24-4.9,4.5-6.39,5.17-6.65,3.99-2.24,9.07-.85,11.36,3.12,1.17,2.03,1.42,4.42.75,6.62,2.24.52,4.18,1.95,5.35,3.98h0c1.17,2.03,1.42,4.42.75,6.62,2.24.52,4.18,1.95,5.35,3.98,1.17,2.03,1.42,4.42.75,6.62,2.24.52,4.18,1.95,5.35,3.98,2.07,3.6,1.2,8.07-1.94,10.64.1.15.2.31.29.47,2.3,4,.92,9.13-3.08,11.43-.79.46-1.66.78-2.55.95,1.47,3.79,0,8.2-3.63,10.29-1.16.67-2.45,1.04-3.78,1.1-.16,2.09-1.11,4.05-2.68,5.5-.22.2-.43.39-.67.56-.25.19-.52.38-.81.54-.02.01-.06.03-.1.05-.03.02-.07.04-.1.07-.29.17-.59.31-.89.43-.25.11-.52.2-.8.29,0,0,0,0-.01,0-2.04.63-4.21.47-6.1-.44-.72,1.12-1.69,2.05-2.85,2.72-1.31.76-2.75,1.12-4.16,1.12Zm-6.51-5.89h.02c.36,0,.69.21.86.52,0,.01.06.11.06.12.88,1.53,2.25,2.59,3.9,3.03,1.64.44,3.36.22,4.84-.63,1.11-.64,2-1.6,2.56-2.78.12-.26.35-.45.63-.53.28-.08.57-.04.82.12,1.58,1.03,3.53,1.29,5.35.73h0c.21-.07.42-.14.62-.23.24-.1.46-.2.67-.32,0,0,.04-.03.08-.06.03-.02.12-.06.15-.08.18-.1.38-.24.57-.39.19-.14.36-.29.52-.43,0,0,.01-.01.02-.02,1.39-1.29,2.13-3.1,2.04-4.98-.01-.29.1-.57.3-.77.21-.2.49-.31.78-.28,1.31.11,2.58-.18,3.69-.82,1.48-.85,2.53-2.22,2.97-3.87s.22-3.36-.63-4.84c0,0-.1-.15-.11-.16-.19-.31-.2-.69-.03-1.01.17-.32.5-.51.87-.52,1.09-.01,2.16-.3,3.1-.85,1.48-.85,2.53-2.22,2.97-3.87s.22-3.36-.63-4.84c-.21-.36-.45-.7-.73-1.02-.19-.22-.28-.51-.24-.8s.21-.55.46-.7c2.93-1.82,3.87-5.59,2.15-8.58-1.06-1.84-2.96-3.03-5.08-3.18-.33-.02-.63-.21-.79-.5-.17-.29-.18-.64-.03-.94.93-1.91.86-4.15-.2-5.99-1.06-1.84-2.96-3.03-5.08-3.18-.33-.02-.63-.21-.79-.5-.17-.29-.18-.64-.03-.94.93-1.91.86-4.15-.2-5.98h0c-1.06-1.84-2.96-3.03-5.08-3.18-.33-.02-.63-.21-.79-.5-.17-.29-.18-.64-.03-.94.93-1.91.86-4.15-.2-5.98-1.75-3.04-5.66-4.1-8.7-2.34-.06.03-.12.06-.19.08-.12.04-3.12,1.13-4.08,5.79-.08.36-.35.66-.7.76l-19.34,5.59-2.79,1.61-14.55,13.92c-.27.26-.66.35-1.01.23-4.51-1.51-6.96.54-7.06.63-.05.04-.11.08-.16.11-3.04,1.75-4.1,5.66-2.34,8.7,1.06,1.84,2.96,3.03,5.08,3.18.33.02.63.21.79.5.17.29.18.64.03.94-.93,1.91-.86,4.15.2,5.98,1.06,1.84,2.96,3.03,5.08,3.18.33.02.63.21.79.5.17.29.18.64.03.94-.93,1.91-.86,4.15.2,5.98,1.06,1.84,2.96,3.03,5.08,3.18.33.02.63.21.79.5.17.29.18.64.03.94-.93,1.91-.86,4.15.2,5.99,1.72,2.99,5.45,4.06,8.5,2.45.26-.14.56-.15.84-.05.27.11.48.33.58.61.14.4.31.79.52,1.14.85,1.48,2.22,2.53,3.87,2.98,1.65.44,3.36.22,4.84-.63.94-.54,1.73-1.32,2.29-2.26.18-.3.51-.49.86-.49Z"/>
      </g>
      <path class="cls-5" d="m464.4,334.9c-1.27-2.21-3.5-3.52-5.86-3.69,1.04-2.13,1.05-4.71-.22-6.92-2.02-3.53-6.53-4.76-10.06-2.73,0,0-3.64,1.18-4.76,6.53l-19.47,5.58-3,1.72-14.67,13.97c-5.17-1.74-8.04.8-8.04.8-3.53,2.02-4.76,6.53-2.73,10.06,1.27,2.21,3.5,3.52,5.86,3.69-1.04,2.13-1.05,4.71.22,6.92s3.5,3.52,5.86,3.69c-1.04,2.13-1.05,4.71.22,6.92,1.27,2.21,3.5,3.52,5.86,3.69-1.04,2.12-1.05,4.71.22,6.92,1.98,3.46,6.33,4.7,9.83,2.85.15.45.35.89.59,1.32,2.02,3.53,6.53,4.76,10.06,2.73,1.14-.65,2.03-1.56,2.66-2.61.04.07.06.14.1.2,2.02,3.53,6.53,4.76,10.06,2.73,1.35-.77,2.35-1.91,2.97-3.21,1.81,1.18,4.08,1.51,6.19.86h0s0,0,0,0c.24-.07.48-.16.72-.26.26-.11.52-.23.78-.37h0s.06-.04.1-.06c.03-.02.07-.03.1-.05h0c.25-.15.49-.31.72-.48.21-.15.4-.32.58-.49,0,0,0,0,0,0h0c1.63-1.49,2.49-3.62,2.39-5.78,1.44.12,2.92-.17,4.27-.94,3.53-2.02,4.76-6.53,2.73-10.06-.04-.07-.08-.13-.12-.19,1.22-.01,2.46-.32,3.59-.97,3.53-2.02,4.76-6.53,2.73-10.06-.25-.43-.53-.82-.84-1.18,3.36-2.08,4.49-6.46,2.51-9.92-1.27-2.21-3.5-3.52-5.86-3.69,1.04-2.12,1.05-4.71-.22-6.92-1.27-2.21-3.5-3.52-5.86-3.69,1.04-2.13,1.05-4.71-.22-6.92Z"/>
      <path class="cls-20" d="m408.42,356.14c.26-.79-.16-1.63-.95-1.89-.78-.27-1.63.16-1.9.94-.01.03-1.18,3.41-3.85,5.34-2.52,1.82-4.53,1.58-4.59,1.57h0c1.21,1.06,2.73,1.7,4.31,1.81-.05.1-.08.2-.13.3.68-.31,1.41-.71,2.16-1.25,3.48-2.51,4.88-6.65,4.94-6.82Z"/>
      <path class="cls-20" d="m414.79,366.71c.23-.79-.23-1.62-1.02-1.85-.79-.23-1.63.22-1.86,1.02,0,.03-.98,3.25-3.59,5.23-2.48,1.88-4.49,1.69-4.56,1.68-.15-.02-.3-.01-.45.01,1.2,1.01,2.67,1.61,4.21,1.72-.1.2-.17.4-.25.6.88-.34,1.85-.86,2.86-1.63,3.42-2.6,4.61-6.62,4.66-6.79Z"/>
      <path class="cls-20" d="m420.95,377.01c.23-.79-.23-1.62-1.02-1.85-.79-.23-1.62.22-1.86,1.01,0,.03-.86,2.75-3.83,5.02-2.49,1.91-4.5,1.78-4.56,1.77-.24-.02-.48.02-.69.1,1.22,1.19,2.8,1.9,4.46,2.06.81-.35,1.7-.84,2.62-1.55,3.79-2.9,4.84-6.41,4.88-6.56Z"/>
      <path class="cls-20" d="m454.95,330.04c-2.88,1.27-4.8.78-4.92.75-.78-.23-1.62.21-1.86,1-.24.79.2,1.63,1,1.87.15.04.87.25,2.02.25,1.23,0,2.94-.23,4.96-1.12,1.01-.45,1.89-.99,2.63-1.54-.09,0-.17-.03-.26-.03.68-1.39.91-2.98.64-4.54-.54.73-1.93,2.36-4.22,3.37Z"/>
      <path class="cls-20" d="m455.67,341.15c-.79-.25-1.62.17-1.88.96-.26.79.16,1.63.95,1.9.16.05.97.3,2.26.3,1.21,0,2.83-.21,4.75-1,1.08-.44,2.04-.96,2.88-1.47,0,0,0,0-.01,0,.62-1.27.87-2.71.7-4.13-.91.74-2.58,1.95-4.71,2.83-2.91,1.2-4.82.66-4.93.62Z"/>
      <path class="cls-20" d="m461.34,351.09c-.79-.25-1.62.18-1.88.96-.26.79.16,1.64.95,1.9.14.05.99.3,2.49.3,1.04,0,2.39-.12,4.04-.52,1.39-.34,2.69-.86,3.8-1.39.56-1.18.79-2.49.67-3.8-1.13.71-3.03,1.76-5.17,2.28-3.14.76-4.83.3-4.9.28Z"/>
      <path class="cls-20" d="m424.48,393.74c2.66-3.28,2.9-7.25,2.91-7.42.04-.83-.59-1.53-1.42-1.58-.86-.03-1.53.59-1.58,1.42,0,.03-.22,3.2-2.24,5.69-1.94,2.39-4.05,2.73-4.13,2.75-.37.05-.68.23-.91.48,1.85.86,4.03.93,6.01.08.46-.4.91-.87,1.36-1.42Z"/>
      <path class="cls-20" d="m437.35,388.54c-.4-.72-1.29-.97-2.02-.58-.72.39-.99,1.29-.62,2.02.04.07.84,1.67.14,4.26-.72,2.7-3.73,4.77-3.76,4.79-.33.22-.53.55-.62.9,1.29.03,2.61-.28,3.81-.97,1.14-.65,2.03-1.56,2.66-2.61.04.07.06.14.1.2.02.03.04.06.06.1.26-.52.49-1.06.64-1.64,1.01-3.77-.26-6.22-.41-6.48Z"/>
      <path class="cls-20" d="m462.22,375.16c-.81.03-1.44.69-1.43,1.51,0,.81.68,1.47,1.49,1.49.01,0,1.43.05,3.62,1.69,2.19,1.64,3.09,3.71,3.39,4.58.63-1.92.48-4.08-.6-5.97-.04-.07-.08-.13-.12-.19.04,0,.07,0,.11,0-.3-.28-.62-.55-.98-.82-3.06-2.29-5.23-2.31-5.47-2.29Z"/>
      <path class="cls-20" d="m468.93,366.34c.59.07,1.27.21,2.01.46,2.92.97,3.89,2.73,3.92,2.79.2.41.56.68.97.78-.08-1.07-.38-2.14-.95-3.14-.25-.43-.53-.82-.84-1.18.15-.09.29-.2.44-.3-1.51.53-3.1.65-4.23.65-.6,0-1.05-.03-1.32-.06Z"/>
      <path class="cls-20" d="m467.38,364.64c.11-.82.86-1.4,1.68-1.29,0,0,.05,0,.12.01-2.5-.28-4.08.33-4.3.42-.76.32-1.11,1.18-.8,1.94s1.18,1.13,1.94.83c.06-.02,1.11-.42,2.88-.21-.12-.01-.2-.02-.22-.02-.82-.11-1.4-.86-1.29-1.68Z"/>
      <path class="cls-20" d="m474.38,362.52c-1.88,1.08-4.61.89-5.2.83.81.09,1.71.27,2.7.6,1.23.41,2.22.93,3,1.47,1.83-1.54,2.77-3.85,2.61-6.16-.28.56-1.19,2.15-3.12,3.25Z"/>
      <path class="cls-20" d="m468.93,366.34s-.02,0-.03,0c0,0,.02,0,.03,0Z"/>
      <path class="cls-20" d="m469.18,363.35c-.07,0-.12-.01-.12-.01-.82-.1-1.57.47-1.68,1.29-.11.82.47,1.57,1.29,1.68.02,0,.11.01.22.02.01,0,.02,0,.03,0,.27.03.72.06,1.32.06,1.13,0,2.71-.12,4.23-.65.14-.1.28-.21.41-.32-.79-.54-1.77-1.07-3-1.47-.99-.33-1.89-.51-2.7-.6Z"/>
      <path class="cls-20" d="m450.51,393.57c-.32-3.87-2.27-5.74-2.49-5.94-.61-.56-1.56-.51-2.12.1-.56.61-.51,1.56.1,2.12.01.01,1.29,1.29,1.52,3.97.24,2.85-1.52,5.81-1.54,5.84-.04.07-.07.14-.1.21.42-.15.84-.33,1.24-.56,1.35-.77,2.35-1.91,2.97-3.21.09.06.18.1.28.16.15-.85.22-1.76.14-2.68Z"/>
      <path class="cls-20" d="m455.48,383.25c-.76-.32-1.63.03-1.96.79-.33.76.02,1.64.78,1.97.02,0,1.83.82,3.72,3.09,1.51,1.82,2.08,4.21,2.24,5.05.99-1.36,1.5-3.01,1.42-4.68.04,0,.09,0,.13,0-.39-.77-.88-1.55-1.48-2.28-2.38-2.87-4.74-3.89-4.84-3.93Z"/>
      <g>
        <path class="cls-16" d="m448.44,386.24c-8.9,5.1-20.28,2-25.38-6.9l-16.6-28.99s3.27-6.48,17.04-14.37c13.77-7.88,21.01-7.42,21.01-7.42l16.6,28.99c5.1,8.9,2,20.28-6.9,25.38l-5.77,3.31Z"/>
        <path class="cls-20" d="m439.24,391.7c-1.9,0-3.82-.25-5.71-.77-5.57-1.51-10.22-5.1-13.08-10.1l-16.6-28.99c-.5-.88-.53-1.94-.08-2.84.38-.75,4.08-7.52,18.22-15.62,14.14-8.1,21.87-7.86,22.69-7.81,1.01.06,1.91.63,2.41,1.5l16.6,28.99c5.92,10.33,2.33,23.55-8.01,29.47l-5.77,3.31c-3.3,1.89-6.97,2.86-10.68,2.86Zm-29.26-41.22l15.68,27.38c4.27,7.46,13.82,10.06,21.28,5.78h0l5.77-3.31c7.46-4.27,10.06-13.82,5.78-21.28l-15.68-27.38c-2.62.34-8.68,1.67-17.84,6.92-9.15,5.24-13.36,9.78-15,11.89Z"/>
      </g>
      <g>
        <path class="cls-12" d="m109.53,386.45c-7.14,0-13.22-4.05-15.62-10.99-.93-2.7-1.31-5.9-1.14-9.11-1.36-1.19-2.4-2.72-3-4.47-.92-2.66-.75-5.5.48-8.03.06-.13.13-.26.2-.39l-18.96-54.9c-.57-1.66-.53-3.38,0-4.92L24.81,158.52c-1.57-1.23-3.05-2.62-4.42-4.14-9.85-10.98-11.06-22.38-10.2-30.33-2.11-1.27-3.69-3.21-4.5-5.56-1.23-3.57-.42-7.35,1.81-10.08l-5.69-16.47c-.52-1.52-.54-3.15-.08-4.67l-.98-2.85c-.94-2.72-1-5.64-.17-8.24,1.06-3.32,3.47-5.85,6.61-6.93,3.14-1.08,6.59-.58,9.48,1.38,2.26,1.53,4.02,3.87,4.95,6.59l.98,2.85c1.27.88,2.28,2.15,2.82,3.72l5.69,16.47c.79.18,1.57.45,2.32.81,2.52,1.23,4.42,3.36,5.33,6.01.6,1.75.73,3.58.4,5.35.64.58,1.2,1.11,1.66,1.55l.27.25c8.33,7.85,16.99,6.19,18.65,5.78,4.16-1.04,8.43,1.34,9.72,5.42,1.11,3.51.83,6.97-.7,10,.41,1.25.53,2.59.33,3.92-.3,2.07-1.03,3.94-2.14,5.55.27.64.45,1.32.54,2.01.35,2.6-.58,5.24-2.49,7.04-.96.9-1.99,1.65-3.06,2.28-.16,3.42-2.42,6.36-5.71,7.38-.86.26-1.85.54-2.95.79l41.83,121.09c1.41.91,2.49,2.26,3.04,3.86l18.96,54.9c.13.06.26.12.39.18,2.52,1.23,4.42,3.36,5.33,6.01.61,1.76.74,3.6.4,5.38,2.11,2.42,3.79,5.17,4.72,7.87,3.14,9.09-1.74,18.16-11.61,21.57-2.33.8-4.63,1.19-6.83,1.19Zm-.88-23.52c-.06.24-.14.49-.23.73-.87,2.33-.85,5.39-.33,6.9.13.37.52,1.51,3.37.52,2.85-.98,2.46-2.12,2.33-2.49-.52-1.51-2.39-3.93-4.52-5.23-.22-.13-.43-.28-.63-.43ZM26.05,121.1c-1.52,4.79-2.76,14.06,5.51,23.27,1.13,1.26,2.37,2.33,3.69,3.2,1.38.91,2.43,2.25,2.97,3.82l.18.52c.77-.62,1.66-1.07,2.61-1.34.04-.21.1-.42.16-.62.84-2.82,3.11-4.92,5.87-5.59,0-.46.04-.93.11-1.39.46-2.7,2.21-4.93,4.61-6.04-.08-.57-.11-1.14-.08-1.71-6.11-.72-13.64-3.25-20.87-10.07l-.29-.27c-1.03-.98-2.79-2.64-4.47-3.76Zm34.57,23.31h-.01.01Zm3.45-3.63h0,0Zm-.67-6.22s-.02,0-.02,0c0,0,.02,0,.02,0Z"/>
        <g>
          <path class="cls-13" d="m102.9,357.15c.85,2.47,3.05,3.96,4.9,3.32,1.85-.64,2.66-3.16,1.8-5.64L16.98,86.7l-6.7,2.32,92.63,268.14Z"/>
          <path class="cls-12" d="m9.64,76.33c-1.85.64-2.66,3.16-1.8,5.64l2.43,7.04,6.7-2.32-2.43-7.04c-.85-2.47-3.05-3.96-4.9-3.32Z"/>
          <rect class="cls-3" x="57.46" y="132.06" width="10" height="194.32" transform="translate(-71.42 32.96) rotate(-19.06)"/>
          <g class="cls-25">
            <path class="cls-15" d="m24.51,127.64s-14.85,19.26,3.49,34.77c12.33,10.44,30.64,6.01,37.42,3.84.84-.27.94-1.15.15-1.27-3.17-.52-5.49-1.24-7.05-1.85-.73-.29-.27-1.22.62-1.29,3.93-.28,10.76-1.25,15.28-4.63.49-.36.48-.91-.04-1.08l-6.33-2.07c-.71-.23-.42-1.1.43-1.28,3.34-.7,8.47-2.41,9.71-6.47.24-.78-.53-1.37-1.54-1.25h0c-1.66.19-2.16-1.37-.73-2.23,2.99-1.8,5.49-4.35,4.48-7.63-.1-.32-.54-.45-.98-.33-3.74,1.04-20.22,4.8-34.03-4.7-3.69-2.54-14.34-10.29-20.88-2.51Z"/>
          </g>
          <rect class="cls-19" x="89.18" y="292.12" width="13.22" height="67.18" transform="translate(-101.1 49.13) rotate(-19.06)"/>
          <path class="cls-20" d="m20.27,115.37s-9.26,17.33,5.7,34.01c10.06,11.22,23.22,8.57,28.04,7.08.6-.19.6-1.03,0-1.22-2.4-.78-4.18-1.69-5.38-2.42-.56-.34-.31-1.21.35-1.19,2.88.08,7.85-.25,10.89-3.11.33-.31.27-.84-.13-1.05l-4.88-2.58c-.55-.29-.41-1.1.2-1.2,2.41-.37,6.05-1.58,6.61-5.4.11-.73-.52-1.37-1.26-1.35h0c-1.21.03-1.72-1.52-.74-2.23,2.05-1.47,3.67-3.72,2.63-7-.1-.31-.44-.49-.76-.41-2.67.67-14.54,2.84-25.61-7.61-2.96-2.79-11.54-11.26-15.68-4.31Z"/>
          <path class="cls-13" d="m120.88,366.14c1.9,5.49-1.48,10.14-6.97,12.03s-11.01.32-12.91-5.17c-1.9-5.49-.37-15.5,5.12-17.4,5.49-1.9,12.87,5.04,14.76,10.53Z"/>
          <rect class="cls-13" x="96.31" y="353.16" width="20" height="6" rx="2.99" ry="2.99" transform="translate(-110.46 54.23) rotate(-19.06)"/>
          <rect class="cls-1" x="103.74" y="366.27" width="13.22" height="3.18" rx="1.42" ry="1.42" transform="translate(-114.06 56.19) rotate(-19.06)"/>
          <path class="cls-23" d="m37.34,137.15c2.96,3.2,6.3,5.72,10.47,7.14.68.22.56,1.28-.15,1.33-3.79.42-7.84-1.3-10.09-4.41-.53-.72-2.43-4-.88-4.34.26-.03.48.09.65.27h0Z"/>
          <path class="cls-23" d="m37.05,130.03c4.76,3.48,9.79,7.27,15.82,7.98.39.04.68.41.6.8-.05.28-.27.49-.53.54-5,1.08-10.27-1.13-13.91-4.52-.67-.68-4.14-4.16-2.72-4.88.25-.12.53-.08.74.08h0Z"/>
          <g class="cls-24">
            <rect class="cls-23" x="12.06" y="111.66" width="20" height="6" rx="3" ry="3" transform="translate(-36.23 13.49) rotate(-19.06)"/>
          </g>
          <rect class="cls-20" x="12.23" y="109.78" width="20" height="6" rx="3" ry="3" transform="translate(-35.61 13.44) rotate(-19.06)"/>
          <rect class="cls-20" x="12.23" y="109.78" width="20" height="6" rx="3" ry="3" transform="translate(-35.61 13.44) rotate(-19.06)"/>
        </g>
      </g>
      <g>
        <g>
          <path class="cls-5" d="m67.26,341.45c-5.18-3.55-5.71-10.31-4.3-16.91-.26.47-.5.93-.74,1.38-4.36,8.35-7.64,21.82.48,27.39s45.82-19.58,51.64-34.34c.91-2.29,1.18-4.22.93-5.83-11.28,14.61-40.93,33.17-48.01,28.31Z"/>
          <path class="cls-5" d="m65.72,359.57c-2.15,0-3.93-.5-5.38-1.49-9.54-6.54-7.76-21.05-1.76-32.54,2.77-5.31,11.21-21.46,31.61-22.34,15.36-.67,23.49,1.25,27.17,6.42,2.33,3.27,2.53,7.4.6,12.29-5.11,12.95-30.57,31.87-45.84,36.55-2.42.74-4.55,1.11-6.41,1.11Zm-.86-8.09s1.82.66,7.51-1.58c13.41-5.28,34.32-21.23,38.15-30.92.6-1.52,1.14-3.57.32-4.71-1.02-1.43-5.01-3.74-20.31-3.08-14,.61-20.64,9.97-24.87,18.06-3.52,6.75-6.65,18.23-.81,22.23h0Z"/>
        </g>
        <g>
          <path class="cls-5" d="m62.13,327.39c4.36-8.35,12.01-19.49,28.24-20.2,16.23-.71,28.62,1.24,23.88,13.25-5.82,14.75-43.53,39.9-51.64,34.34-8.12-5.56-4.84-19.04-.48-27.39Z"/>
          <path class="cls-22" d="m67.26,341.45c-5.18-3.55-5.71-10.31-4.3-16.91-.26.47-.5.93-.74,1.38-4.36,8.35-7.64,21.82.48,27.39s45.82-19.58,51.64-34.34c.91-2.29,1.18-4.22.93-5.83-11.28,14.61-40.93,33.17-48.01,28.31Z"/>
          <path class="cls-12" d="m65.72,359.57c-2.15,0-3.93-.5-5.38-1.49-9.54-6.54-7.76-21.05-1.76-32.54,2.77-5.31,11.21-21.46,31.61-22.34,15.36-.67,23.49,1.25,27.17,6.42,2.33,3.27,2.53,7.4.6,12.29-5.11,12.95-30.57,31.87-45.84,36.55-2.42.74-4.55,1.11-6.41,1.11Zm-.86-8.09s1.82.66,7.51-1.58c13.41-5.28,34.32-21.23,38.15-30.92.6-1.52,1.14-3.57.32-4.71-1.02-1.43-5.01-3.74-20.31-3.08-14,.61-20.64,9.97-24.87,18.06-3.52,6.75-6.65,18.23-.81,22.23h0Z"/>
        </g>
      </g>
    </g>
  </g>
</svg>